<svg xmlns="http://www.w3.org/2000/svg" version="1.1" xmlns:xlink="http://www.w3.org/1999/xlink" xmlns:svgjs="http://svgjs.dev/svgjs" width="1920" height="10000" preserveAspectRatio="none" viewBox="0 0 1920 10000"><g mask="url(&quot;#SvgjsMask1490&quot;)" fill="none"><rect width="1920" height="10000" x="0" y="0" fill="rgba(0, 0, 0, 1)"></rect><path d="M712.429982689504 1018.3070441301877L1110.1066781595337 1212.2669282241031 1304.0665622534489 814.5902327540734 906.3898667834193 620.630348660158z" fill="rgba(23, 38, 171, 0.5)" class="triangle-float1"></path><path d="M-170.73133016476572 5079.6943014962335L59.11234705076299 5344.099206364481 323.51725191901056 5114.2555291489525 93.67357470348185 4849.850624280705z" fill="rgba(23, 38, 171, 0.5)" class="triangle-float2"></path><path d="M2028.0553839258491 4519.088572785033L1711.1600950542706 4541.24805005574 1733.319572324978 4858.143338927319 2050.2148611965563 4835.983861656611z" fill="rgba(23, 38, 171, 0.5)" class="triangle-float3"></path><path d="M-264.40711254779086 8617.065436867359L-6.773728419651832 9063.299547903203 439.4603826161937 8805.666163775066 181.82699848805464 8359.43205273922z" fill="rgba(23, 38, 171, 0.5)" class="triangle-float3"></path><path d="M1430.8266931661522 4010.5589425710473L1773.9671388027864 4108.952882024573 1872.3610782563126 3765.812436387939 1529.220632619678 3667.418496934413z" fill="rgba(23, 38, 171, 0.5)" class="triangle-float1"></path><path d="M1649.5184060255613 3411.3286657542426L1300.0657272641845 3248.376205485034 1137.113266994976 3597.828884246411 1486.5659457563527 3760.7813445156194z" fill="rgba(23, 38, 171, 0.5)" class="triangle-float1"></path><path d="M-280.42553554159866 3798.1569378828412L179.33823220479002 4096.731019734442 477.91231405639115 3636.9672519880537 18.14854631000253 3338.3931701364527z" fill="rgba(23, 38, 171, 0.5)" class="triangle-float2"></path><path d="M1467.2290251453737 5657.7823161959295L1753.7045270963315 5425.799028814519 1521.721239714921 5139.323526863562 1235.2457377639632 5371.306814244972z" fill="rgba(23, 38, 171, 0.5)" class="triangle-float1"></path><path d="M536.5887174757218-5.3731053106581825L202.1373874979575-101.27548094267851 106.23501186593717 233.17584903508575 440.6863418437014 329.0782246671061z" fill="rgba(23, 38, 171, 0.5)" class="triangle-float3"></path><path d="M328.90900073996715 556.7114714870345L281.8727353595107 939.7911114236201 664.9523752960963 986.8273768040765 711.9886406765527 603.747736867491z" fill="rgba(23, 38, 171, 0.5)" class="triangle-float2"></path><path d="M1517.9458424935763 8870.823780919964L1650.9598813573884 9367.238932079652 2147.3750325170763 9234.22489321584 2014.3609936532644 8737.809742056152z" fill="rgba(23, 38, 171, 0.5)" class="triangle-float3"></path><path d="M968.648064635415 6485.783079374426L458.41195810141664 6459.042738120954 431.6716168479446 6969.278844654952 941.907723381943 6996.019185908424z" fill="rgba(23, 38, 171, 0.5)" class="triangle-float2"></path><path d="M241.93918927658729 5226.178949238357L253.41648293265501 4897.5122611008-75.2502052049017 4886.0349674447325-86.72749886096943 5214.701655582289z" fill="rgba(23, 38, 171, 0.5)" class="triangle-float2"></path><path d="M1693.4027972404797 3163.0458448333684L1232.0417452749487 2874.7554632954616 943.7513637370416 3336.1165152609924 1405.112415702573 3624.4068967988997z" fill="rgba(23, 38, 171, 0.5)" class="triangle-float1"></path><path d="M416.2012692805228 1192.328669560699L226.30338202835438 930.9566508111411-35.06863672120352 1120.8545380633095 154.82925053096494 1382.2265568128673z" fill="rgba(23, 38, 171, 0.5)" class="triangle-float3"></path><path d="M80.40537378836896 5309.735967138432L-55.96745420208282 5664.999330057727 299.2959087172119 5801.372158048179 435.6687367076637 5446.108795128884z" fill="rgba(23, 38, 171, 0.5)" class="triangle-float1"></path><path d="M1300.2695970758355 1904.5039904651949L1678.1131656780992 1924.305932812019 1697.9151080249233 1546.4623642097554 1320.0715394226595 1526.6604218629311z" fill="rgba(23, 38, 171, 0.5)" class="triangle-float2"></path><path d="M66.44207895987017 10058.264575117482L558.4078174819183 9953.694029277782 453.8372716422183 9461.728290755735-38.128466879829745 9566.298836595433z" fill="rgba(23, 38, 171, 0.5)" class="triangle-float1"></path><path d="M184.2626700310571 4695.437744623807L495.0639430627588 4461.232186553663 260.8583849926157 4150.430913521962-49.94288803908606 4384.636471592105z" fill="rgba(23, 38, 171, 0.5)" class="triangle-float3"></path><path d="M859.4381382442601 8355.65779174003L1023.4409043295362 8651.526613754477 1319.3097263439831 8487.523847669201 1155.306960258707 8191.655025654753z" fill="rgba(23, 38, 171, 0.5)" class="triangle-float1"></path><path d="M301.85988051821425 3879.056484423444L644.4531252829402 3424.4198930362804 189.81653389577667 3081.8266482715544-152.77671086894924 3536.463239658718z" fill="rgba(23, 38, 171, 0.5)" class="triangle-float1"></path><path d="M168.83205262451327 2514.5853098388334L687.8743551461779 2365.752324577119 539.0413698844634 1846.7100220554544 19.999067362798826 1995.5430073171688z" fill="rgba(23, 38, 171, 0.5)" class="triangle-float1"></path><path d="M265.5744023097401 6425.875776048157L-139.65623292687349 6397.5392896242165-167.99271935081345 6802.7699248608305 237.23791588580013 6831.106411284771z" fill="rgba(23, 38, 171, 0.5)" class="triangle-float1"></path><path d="M2105.964393078567 8469.78023717275L1910.1506757006412 8029.975427107042 1470.3458656349333 8225.789144484968 1666.159583012859 8665.593954550675z" fill="rgba(23, 38, 171, 0.5)" class="triangle-float3"></path><path d="M1041.5115777255257 1225.1136183821186L655.1995830169269 1457.233282660499 887.3192472953074 1843.5452773690977 1273.6312420039062 1611.4256130907174z" fill="rgba(23, 38, 171, 0.5)" class="triangle-float3"></path><path d="M875.6396425075443 9279.627273026419L750.1792478557982 8984.061105468922 454.6130802983009 9109.521500120667 580.073474950047 9405.087667678165z" fill="rgba(23, 38, 171, 0.5)" class="triangle-float1"></path><path d="M1849.7505195970602 1366.7009942699683L2049.0285612504154 1007.1938905503478 1689.5214575307948 807.9158488969927 1490.2434158774397 1167.4229526166132z" fill="rgba(23, 38, 171, 0.5)" class="triangle-float1"></path><path d="M407.7142853782402 4151.924447011972L161.39461395572928 4358.61119245431 368.08135939806704 4604.930863876821 614.401030820578 4398.2441184344825z" fill="rgba(23, 38, 171, 0.5)" class="triangle-float3"></path><path d="M1032.5277562569463 6199.703683661472L1021.9457350778749 5896.674244932403 718.9162963488066 5907.256266111474 729.4983175278779 6210.285704840543z" fill="rgba(23, 38, 171, 0.5)" class="triangle-float1"></path><path d="M379.7247178745952 4962.459660536683L833.2847805108973 5280.04583542549 1150.8709553997041 4826.485772789188 697.3108927634021 4508.899597900381z" fill="rgba(23, 38, 171, 0.5)" class="triangle-float3"></path><path d="M717.0337940484279 9826.947641393044L998.5553767181461 10277.476350809678 1449.0840861347797 9995.95476813996 1167.5625034650616 9545.426058723326z" fill="rgba(23, 38, 171, 0.5)" class="triangle-float2"></path><path d="M1267.3959888901102 1963.032038256177L1003.4844089458884 2439.141131644685 1479.5935023343966 2703.052711588907 1743.5050822786184 2226.9436182003988z" fill="rgba(23, 38, 171, 0.5)" class="triangle-float2"></path><path d="M814.1143683988723 4714.5312674134875L856.2498315696545 4313.639114359191 455.35767851535803 4271.503651188409 413.22221534457583 4672.395804242706z" fill="rgba(23, 38, 171, 0.5)" class="triangle-float2"></path><path d="M599.6442377931528 2844.6848931141594L481.8817649260901 2334.5995829944345-28.20354519363468 2452.362055861497 89.55892767342795 2962.447365981222z" fill="rgba(23, 38, 171, 0.5)" class="triangle-float2"></path><path d="M436.48533819219995 5133.352750049169L807.9603014080185 5232.889166451228 907.4967178100783 4861.41420323541 536.0217545942596 4761.877786833351z" fill="rgba(23, 38, 171, 0.5)" class="triangle-float1"></path><path d="M1231.0711708804545-26.753764517782344L1009.2493901173806 302.1105496075412 1338.113704242704 523.9323303706151 1559.935485005778 195.06801624529157z" fill="rgba(23, 38, 171, 0.5)" class="triangle-float1"></path><path d="M1022.7917140816688 6889.060553283859L696.0720453855215 7215.780221980006 1022.7917140816689 7542.499890676154 1349.5113827778162 7215.780221980006z" fill="rgba(23, 38, 171, 0.5)" class="triangle-float3"></path><path d="M2278.5793139110906 7954.60237061062L1833.1453736958997 7727.6424420024005 1606.18544508768 8173.076382217591 2051.619385302871 8400.036310825812z" fill="rgba(23, 38, 171, 0.5)" class="triangle-float3"></path><path d="M306.1695389905434 8888.641488169611L554.0499399794801 9375.134167259328 1040.5426190691965 9127.25376627039 792.6622180802597 8640.761087180674z" fill="rgba(23, 38, 171, 0.5)" class="triangle-float2"></path><path d="M1361.5067013206435 4517.6249489011025L1045.0504473334986 4773.886170584597 1301.3116690169925 5090.3424245717415 1617.7679230041372 4834.081202888247z" fill="rgba(23, 38, 171, 0.5)" class="triangle-float3"></path><path d="M650.8464886364445 5267.118933425105L689.0145909963499 4721.289639924077 143.18529749532178 4683.121537564171 105.0171951354165 5228.9508310652z" fill="rgba(23, 38, 171, 0.5)" class="triangle-float2"></path><path d="M1507.2501446938886 2010.1304176767337L1396.0037969079826 1667.7493645251784 1053.622743756427 1778.9957123110842 1164.869091542333 2121.3767654626395z" fill="rgba(23, 38, 171, 0.5)" class="triangle-float2"></path><path d="M438.40021147149923 8558.561339993668L831.7297076964086 8349.424337100227 622.5927048029663 7956.094840875317 229.26320857805695 8165.231843768759z" fill="rgba(23, 38, 171, 0.5)" class="triangle-float1"></path><path d="M2228.55202598389 1093.0088975050865L2099.774092782308 643.906873209911 1650.6720684871327 772.6848064114929 1779.4500016887146 1221.7868307066683z" fill="rgba(23, 38, 171, 0.5)" class="triangle-float3"></path><path d="M704.1904340991896 6773.419285094254L1051.4861526736431 6797.704567495795 1075.771435075185 6450.408848921342 728.4757165007317 6426.1235665198z" fill="rgba(23, 38, 171, 0.5)" class="triangle-float3"></path><path d="M1236.0867176164104 3348.8929012951935L775.6687747661094 3348.8929012951935 775.6687747661094 3809.3108441454947 1236.0867176164104 3809.3108441454947z" fill="rgba(23, 38, 171, 0.5)" class="triangle-float3"></path><path d="M-75.9897630293481 342.11667812167565L362.58682683760014 459.6329211957203 480.10306991164487 21.056331328772046 41.526480044696584-96.45991174527262z" fill="rgba(23, 38, 171, 0.5)" class="triangle-float1"></path><path d="M1459.7440519242855 2884.3461205365115L958.9653067274382 2963.6616818209377 1038.2808680118644 3464.440427017785 1539.0596132087117 3385.124865733359z" fill="rgba(23, 38, 171, 0.5)" class="triangle-float3"></path><path d="M155.28443816524046 1170.9687017288663L633.3082464655223 1187.661660950088 650.001205686744 709.6378526498063 171.97739738646214 692.9448934285845z" fill="rgba(23, 38, 171, 0.5)" class="triangle-float1"></path><path d="M416.71930751148096 1866.557836940995L121.35873226728569 1488.5135401774533-256.6855644962562 1783.8741154216484 38.675010747939154 2161.9184121851904z" fill="rgba(23, 38, 171, 0.5)" class="triangle-float3"></path></g><defs><mask id="SvgjsMask1490"><rect width="1920" height="10000" fill="#ffffff"></rect></mask><style>
                @keyframes float1 {
                    0%{transform: translate(0, 0)}
                    50%{transform: translate(-10px, 0)}
                    100%{transform: translate(0, 0)}
                }

                .triangle-float1 {
                    animation: float1 5s infinite;
                }

                @keyframes float2 {
                    0%{transform: translate(0, 0)}
                    50%{transform: translate(-5px, -5px)}
                    100%{transform: translate(0, 0)}
                }

                .triangle-float2 {
                    animation: float2 4s infinite;
                }

                @keyframes float3 {
                    0%{transform: translate(0, 0)}
                    50%{transform: translate(0, -10px)}
                    100%{transform: translate(0, 0)}
                }

                .triangle-float3 {
                    animation: float3 6s infinite;
                }
            </style></defs></svg>